<svg width="198" height="47" viewBox="0 0 198 47" fill="none" xmlns="http://www.w3.org/2000/svg">
<path d="M3.20003 22.7625V20.7531H10.0443C11.7606 20.7531 13.3304 20.481 14.7537 19.9368C16.1769 19.3927 17.3072 18.5764 18.1444 17.488C18.9816 16.3577 19.4002 14.9345 19.4002 13.2182C19.4002 10.7902 18.5421 8.90648 16.8258 7.56693C15.1513 6.18552 12.8909 5.49481 10.0443 5.49481H3.95353V43.2953H10.6722C12.8909 43.2953 14.8374 42.9185 16.5118 42.165C18.1863 41.4115 19.484 40.3231 20.4049 38.8999C21.3258 37.4347 21.7863 35.6138 21.7863 33.437C21.7863 31.8882 21.4933 30.5277 20.9072 29.3556C20.3212 28.1416 19.5049 27.1369 18.4584 26.3416C17.4118 25.5044 16.2188 24.8764 14.8793 24.4578C13.5816 24.0392 12.1792 23.8299 10.6722 23.8299H3.20003V21.8206H10.9234C12.7234 21.8206 14.4816 22.0718 16.1979 22.5741C17.9142 23.0346 19.4421 23.7462 20.7817 24.709C22.1631 25.6718 23.2514 26.9067 24.0468 28.4137C24.884 29.8788 25.3026 31.6161 25.3026 33.6254C25.3026 36.5138 24.6747 38.8999 23.4189 40.7836C22.1631 42.6674 20.4258 44.0697 18.2072 44.9907C16.0304 45.9116 13.5188 46.3721 10.6722 46.3721H0.5V2.41803H10.0443C12.6816 2.41803 14.942 2.81571 16.8258 3.61106C18.7514 4.40642 20.2375 5.59946 21.284 7.19018C22.3305 8.73904 22.8538 10.6856 22.8538 13.0298C22.8538 15.1647 22.3096 16.9647 21.2212 18.4299C20.1747 19.8531 18.7095 20.9415 16.8258 21.695C14.942 22.4066 12.7653 22.7625 10.2955 22.7625H3.20003Z" fill="white"/>
<path d="M34.5457 46.3721V43.1069H56.3344V46.3721H34.5457ZM34.5457 5.68319V2.41803H56.3344V5.68319H34.5457ZM34.5457 31.6161V28.3509H69.1651V31.6161H34.5457ZM32.7248 2.41803H36.1783V46.3721H32.7248V2.41803Z" fill="white"/>
<path d="M68.5272 31.6161L69.6575 28.3509H129.419L130.549 31.6161H68.5272ZM79.7041 8.69718L71.1645 29.4812L70.7877 30.2347L64.1946 46.3721H60.3015L79.7041 0.722656L99.1067 46.3721H95.2136L88.6833 30.4858L88.3693 29.6695L79.7041 8.69718Z" fill="white"/>
<path d="M103.36 2.41803H106.814V32.1812C106.814 35.6975 107.735 38.5022 109.577 40.5952C111.419 42.6883 114.035 43.7348 117.426 43.7348C120.816 43.7348 123.433 42.6883 125.275 40.5952C127.116 38.5022 128.037 35.6975 128.037 32.1812V2.41803H131.491V32.1812C131.491 34.358 131.177 36.3673 130.549 38.2092C129.921 40.0092 129 41.558 127.786 42.8557C126.572 44.1534 125.086 45.179 123.328 45.9325C121.612 46.6442 119.644 47 117.426 47C115.207 47 113.219 46.6442 111.46 45.9325C109.744 45.179 108.279 44.1534 107.065 42.8557C105.851 41.558 104.93 40.0092 104.302 38.2092C103.674 36.3673 103.36 34.358 103.36 32.1812V2.41803Z" fill="white"/>
<path d="M136.103 5.68319V2.41803H162.663V5.68319H151.11V46.3721H147.656V5.68319H136.103Z" fill="white"/>
<path d="M193.585 2.41803H197.478L182.722 28.2881V46.3721H179.268V28.3509L164.764 2.41803H168.657L180.964 25.1485L193.585 2.41803Z" fill="white"/>
</svg>
