<svg width="40" height="40" viewBox="0 0 40 40" fill="none" xmlns="http://www.w3.org/2000/svg">
<g clip-path="url(#clip0_447_13876)">
<path d="M33.4375 23.3813C33.2481 23.2984 33.0418 23.2614 32.8355 23.2734C32.6291 23.2853 32.4285 23.3458 32.25 23.45C32.25 23.375 32.25 23.3 32.25 23.2125C32.2572 23.1712 32.2572 23.1289 32.25 23.0875C33.475 15.1063 31.325 9.04375 26.25 6.01875L26.1187 5.95C25.8566 4.26638 24.9899 2.73598 23.6808 1.64524C22.3718 0.554502 20.7101 -0.0218136 19.0068 0.0241592C17.3035 0.0701319 15.6754 0.735242 14.4271 1.895C13.1788 3.05477 12.3959 4.62969 12.225 6.325C12.1857 6.35567 12.1439 6.38286 12.1 6.40625C6.87495 9.93125 5.12495 16.4188 7.5562 23.375C7.40062 23.3024 7.23101 23.2648 7.05933 23.2648C6.88764 23.2648 6.71803 23.3024 6.56245 23.375C6.0062 23.6813 5.84995 24.525 6.0812 25.9813C6.54995 28.2 7.7937 29.6438 9.5062 30.025L9.54995 30.1375C9.64995 30.4125 9.7562 30.675 9.86245 30.925C9.09259 31.4508 8.55536 32.2535 8.36276 33.1657C8.17015 34.0779 8.33703 35.0292 8.82861 35.8214C9.32019 36.6135 10.0985 37.1854 11.0014 37.4178C11.9043 37.6502 12.862 37.5251 13.675 37.0688C14.3531 37.7777 15.1101 38.4068 15.9312 38.9438C17.0003 39.634 18.2461 40.0008 19.5187 40C20.424 40.0017 21.3206 39.8232 22.1562 39.475L22.6375 39.2813C26.5 37.5813 29.25 34.4875 30.8187 30.075L30.8562 29.9625C32.4187 29.6 33.425 28.3 33.9187 25.975C34.15 24.5313 33.9937 23.6875 33.4375 23.3813ZM11.875 36.575C11.3518 36.575 10.8404 36.4198 10.4055 36.129C9.97062 35.8382 9.63177 35.425 9.43185 34.9415C9.23194 34.4581 9.17995 33.9262 9.28247 33.4132C9.38498 32.9002 9.6374 32.4291 10.0078 32.0596C10.3781 31.6901 10.8498 31.4388 11.363 31.3375C11.8763 31.2362 12.408 31.2895 12.891 31.4905C13.374 31.6916 13.7864 32.0314 14.0762 32.467C14.3659 32.9026 14.5199 33.4144 14.5187 33.9375C14.5187 34.2844 14.4503 34.6279 14.3173 34.9483C14.1844 35.2687 13.9896 35.5597 13.744 35.8047C13.4984 36.0497 13.2069 36.2439 12.8862 36.376C12.5655 36.5082 12.2218 36.5758 11.875 36.575ZM31.3125 23.0875C31.2687 23.4 31.2187 23.7125 31.15 24.075V24.15C30.3 31.3688 27.3062 36.1563 22.2625 38.3813L21.7937 38.575C21.0742 38.8721 20.3034 39.025 19.525 39.025C18.4382 39.0303 17.3736 38.7174 16.4625 38.125C15.734 37.6519 15.061 37.0985 14.4562 36.475C15.029 35.8971 15.3904 35.1431 15.4819 34.3346C15.5734 33.5261 15.3899 32.7104 14.9608 32.019C14.5317 31.3277 13.8821 30.8012 13.117 30.5244C12.3518 30.2477 11.5157 30.2369 10.7437 30.4938C9.95082 28.4849 9.33596 26.4102 8.9062 24.2938C9.80933 22.8512 10.8908 21.5282 12.125 20.3563C13.3119 19.2889 14.5944 18.3328 15.9562 17.5C17.9044 16.2789 19.3418 14.3906 20 12.1875C21.1146 13.2695 22.3074 14.2681 23.5687 15.175C24.1937 15.6438 24.8625 16.0813 25.3625 16.425C26.7562 17.3375 30.0375 19.7375 31.3687 22.7938C31.3437 22.8813 31.3375 22.9813 31.3187 23.0875H31.3125Z" fill="#5F7A69"/>
<path d="M17.1126 22.3C17.1935 22.3613 17.2923 22.3942 17.3938 22.3938C17.4983 22.3957 17.6007 22.3639 17.6858 22.3032C17.771 22.2425 17.8343 22.156 17.8665 22.0566C17.8988 21.9571 17.8981 21.8499 17.8648 21.7508C17.8314 21.6517 17.7671 21.566 17.6813 21.5063C16.8985 20.9509 15.9598 20.6577 15.0001 20.6688C13.5828 20.7177 12.2025 21.1333 10.9938 21.875C10.9389 21.9098 10.8917 21.9555 10.8551 22.0092C10.8186 22.063 10.7935 22.1237 10.7813 22.1875C10.766 22.2503 10.7642 22.3157 10.776 22.3793C10.7879 22.4428 10.8131 22.5032 10.8501 22.5563C10.8937 22.6246 10.9537 22.681 11.0247 22.7202C11.0956 22.7595 11.1752 22.7805 11.2563 22.7813C11.3521 22.7823 11.4459 22.7539 11.5251 22.7C12.5805 22.0729 13.7738 21.7145 15.0001 21.6563C15.7542 21.6451 16.4929 21.8702 17.1126 22.3Z" fill="#5F7A69"/>
<path d="M22.3562 21.35C22.3054 21.3889 22.2631 21.4379 22.232 21.4938C22.2008 21.5496 22.1814 21.6113 22.175 21.675C22.1616 21.8051 22.1998 21.9352 22.2812 22.0375C22.3265 22.0951 22.3845 22.1414 22.4506 22.1728C22.5167 22.2043 22.5893 22.22 22.6625 22.2188C22.7736 22.2188 22.8815 22.1814 22.9687 22.1125C23.5982 21.6905 24.3423 21.4723 25.1 21.4875C26.2953 21.5301 27.4454 21.9551 28.3812 22.7C28.4645 22.7613 28.5653 22.7942 28.6687 22.7938C28.7463 22.7933 28.8227 22.775 28.892 22.7403C28.9614 22.7056 29.0218 22.6555 29.0687 22.5938C29.1447 22.4876 29.1755 22.3556 29.1544 22.2268C29.1333 22.0979 29.0621 21.9827 28.9562 21.9063C27.8576 21.0415 26.51 20.5529 25.1125 20.5125C24.1287 20.4959 23.1645 20.7888 22.3562 21.35Z" fill="#5F7A69"/>
<path d="M17.5001 25.0625C17.5102 24.9988 17.5071 24.9338 17.491 24.8715C17.4749 24.8091 17.4461 24.7507 17.4064 24.7C17.3614 24.6396 17.3029 24.5907 17.2357 24.557C17.1684 24.5234 17.0941 24.506 17.0189 24.5062C16.9103 24.5038 16.8043 24.5391 16.7189 24.6062C16.2361 24.9997 15.6353 25.2198 15.0126 25.2312C14.3405 25.2077 13.6894 24.9907 13.1376 24.6062C13.0548 24.5441 12.9537 24.5111 12.8501 24.5125C12.7473 24.5125 12.647 24.545 12.5638 24.6054C12.4805 24.6658 12.4185 24.751 12.3866 24.8488C12.3547 24.9466 12.3545 25.0519 12.3862 25.1498C12.4178 25.2477 12.4795 25.3331 12.5626 25.3937C13.303 25.8908 14.171 26.1642 15.0626 26.1812C15.8888 26.1808 16.6905 25.9011 17.3376 25.3875C17.3858 25.3476 17.4251 25.2981 17.4531 25.2421C17.4811 25.1861 17.4971 25.125 17.5001 25.0625Z" fill="#5F7A69"/>
<path d="M27.0999 24.5063C27.0015 24.5066 26.9055 24.5372 26.8249 24.5938C26.3274 24.9866 25.712 25.2003 25.078 25.2003C24.4441 25.2003 23.8287 24.9866 23.3312 24.5938C23.252 24.5343 23.1551 24.5035 23.0562 24.5063C22.9762 24.5057 22.8973 24.5247 22.8265 24.5618C22.7557 24.5988 22.695 24.6528 22.6499 24.7188C22.5788 24.8265 22.5521 24.9576 22.5754 25.0846C22.5986 25.2115 22.6702 25.3246 22.7749 25.4C23.4359 25.9064 24.2454 26.1807 25.078 26.1807C25.9107 26.1807 26.7201 25.9064 27.3812 25.4C27.4859 25.3246 27.5574 25.2115 27.5807 25.0846C27.604 24.9576 27.5773 24.8265 27.5062 24.7188C27.4611 24.6528 27.4004 24.5988 27.3296 24.5618C27.2587 24.5247 27.1799 24.5057 27.0999 24.5063Z" fill="#5F7A69"/>
<path d="M19.9189 31.5313C20.4786 31.517 21.0166 31.3119 21.4439 30.95C21.4946 30.9104 21.5369 30.8611 21.5685 30.805C21.6 30.7489 21.6202 30.6871 21.6277 30.6232C21.6353 30.5593 21.6301 30.4945 21.6125 30.4326C21.5949 30.3707 21.5652 30.3129 21.5251 30.2625C21.4789 30.204 21.42 30.1568 21.3529 30.1243C21.2858 30.0918 21.2122 30.075 21.1376 30.075C21.0284 30.0749 20.9224 30.1124 20.8376 30.1813C20.5933 30.4214 20.2645 30.5559 19.922 30.5559C19.5795 30.5559 19.2506 30.4214 19.0064 30.1813C18.9191 30.1124 18.8112 30.075 18.7001 30.075C18.6264 30.075 18.5538 30.0919 18.4877 30.1244C18.4216 30.1569 18.3638 30.2042 18.3189 30.2625C18.2788 30.3129 18.2491 30.3707 18.2315 30.4326C18.2139 30.4945 18.2087 30.5593 18.2163 30.6232C18.2238 30.6871 18.2439 30.7489 18.2755 30.805C18.3071 30.8611 18.3494 30.9104 18.4001 30.95C18.8244 31.3128 19.3608 31.5181 19.9189 31.5313Z" fill="#5F7A69"/>
<path d="M22.9062 33.2938C22.8282 33.2969 22.7516 33.316 22.6812 33.35C21.8886 33.7702 21.0033 33.9851 20.1062 33.975C19.1053 33.9642 18.1168 33.7516 17.2 33.35C17.1386 33.3237 17.0729 33.3088 17.0062 33.3063C16.8941 33.3084 16.7861 33.3486 16.6998 33.4202C16.6136 33.4919 16.5544 33.5908 16.5318 33.7006C16.5093 33.8105 16.5248 33.9247 16.5758 34.0245C16.6268 34.1244 16.7103 34.2039 16.8125 34.25C17.8481 34.7211 18.9688 34.9763 20.1062 35C21.1613 34.9909 22.198 34.7226 23.125 34.2188C23.2396 34.1577 23.3255 34.0539 23.3641 33.9298C23.4027 33.8058 23.3909 33.6716 23.3312 33.5563C23.2896 33.4791 23.2284 33.4142 23.1539 33.3681C23.0793 33.3221 22.9939 33.2964 22.9062 33.2938Z" fill="#5F7A69"/>
</g>
<defs>
<clipPath id="clip0_447_13876">
<rect width="40" height="40" fill="white"/>
</clipPath>
</defs>
</svg>
