<svg width="40" height="40" viewBox="0 0 40 40" fill="none" xmlns="http://www.w3.org/2000/svg">
<path d="M19.6874 0.000172993C15.6573 0.000172993 11.8064 1.16586 8.51969 3.33787L8.73532 1.77633C8.85336 0.921492 8.25602 0.132828 7.40119 0.0148603C6.54698 -0.103107 5.75777 0.494152 5.63972 1.34899L4.88145 6.84065C4.78965 7.50549 5.1327 8.15478 5.73378 8.45353C6.33495 8.75227 7.05963 8.63376 7.53408 8.15923C10.7803 4.91302 15.0964 3.12522 19.6873 3.12522C29.1862 3.12522 36.8747 10.8123 36.8747 20.3126C36.8747 21.1755 37.5742 21.875 38.4371 21.875C39.3001 21.875 39.9996 21.1755 39.9996 20.3126C39.9997 9.08657 30.915 0.000172993 19.6874 0.000172993Z" fill="#5F7A69"/>
<path d="M34.2661 31.5465C33.665 31.2477 32.9403 31.3663 32.4658 31.8408C29.2195 35.087 24.9034 36.8749 20.3125 36.8749C10.8134 36.8749 3.12521 29.1875 3.12521 19.6875C3.12521 18.8246 2.42569 18.1251 1.56273 18.1251C0.699769 18.1251 0.000244141 18.8246 0.000244141 19.6875C0.000244141 30.9135 9.08492 39.9998 20.3125 39.9998C24.3427 39.9998 28.1936 38.8342 31.4802 36.6621L31.2646 38.2237C31.1466 39.0785 31.7439 39.8672 32.5988 39.9852C33.4533 40.1032 34.2423 39.5061 34.3602 38.6512L35.1185 33.1594C35.2102 32.4945 34.8672 31.8452 34.2661 31.5465Z" fill="#5F7A69"/>
<path d="M26.2498 30.9373C28.8345 30.9373 30.9373 28.8346 30.9373 26.2499V13.75C30.9373 11.1654 28.8345 9.06256 26.2498 9.06256H13.75C11.1653 9.06256 9.0625 11.1654 9.0625 13.75V26.2499C9.0625 28.8346 11.1653 30.9373 13.75 30.9373H26.2498ZM12.1875 26.2499V13.75C12.1875 12.8885 12.8884 12.1875 13.75 12.1875H18.4374V16.875C18.4374 17.7379 19.1369 18.4375 19.9999 18.4375C20.8629 18.4375 21.5624 17.7379 21.5624 16.875V12.1875H26.2498C27.1114 12.1875 27.8123 12.8885 27.8123 13.75V26.2499C27.8123 27.1114 27.1114 27.8124 26.2498 27.8124H13.75C12.8885 27.8124 12.1875 27.1114 12.1875 26.2499Z" fill="#5F7A69"/>
</svg>
