<svg width="36" height="36" viewBox="0 0 36 36" fill="none" xmlns="http://www.w3.org/2000/svg">
<path fill-rule="evenodd" clip-rule="evenodd" d="M1.97011 35.915C1.29344 36.0467 0.636776 35.605 0.503443 34.9283C0.371776 34.2517 0.813443 33.5933 1.49011 33.4617C1.49011 33.4617 13.6701 31.03 22.3418 17.3517C22.7101 16.77 23.4834 16.5967 24.0668 16.9667C24.6484 17.335 24.8218 18.1083 24.4534 18.6917C15.1318 33.3933 1.97011 35.915 1.97011 35.915Z" fill="#5F7A69"/>
<path fill-rule="evenodd" clip-rule="evenodd" d="M13.9433 13.2883C14.255 13.9033 14.01 14.6567 13.395 14.97C12.78 15.2817 12.0267 15.0367 11.7133 14.4217C10.9717 12.96 10.2917 11.4133 9.70833 9.79C9.475 9.14 9.81333 8.425 10.4633 8.19167C11.1117 7.95834 11.8283 8.29667 12.0617 8.945C12.6083 10.4683 13.2467 11.9183 13.9433 13.2883Z" fill="#5F7A69"/>
<path fill-rule="evenodd" clip-rule="evenodd" d="M34.6051 4.37C34.6051 4.37 36.1468 10.1883 35.2251 16.6833C34.5968 21.1133 32.8251 25.8383 28.7485 29.3217C24.4701 32.9783 17.5901 35.31 6.61179 34.2667C6.00512 34.2083 5.52679 33.72 5.48346 33.1117C5.48346 33.1117 4.51512 19.4733 14.1951 10.6583C18.3218 6.89834 24.3851 3.98834 33.3201 3.44C33.9151 3.40334 34.4535 3.79334 34.6051 4.37ZM32.4101 6.015C24.7785 6.67 19.5051 9.20334 15.8785 12.5067C8.62512 19.1117 7.96012 28.7017 7.95179 31.8717C17.3535 32.585 23.3585 30.64 27.1251 27.4217C30.6935 24.3717 32.1985 20.2117 32.7501 16.3317C33.3768 11.9167 32.7701 7.84 32.4101 6.015Z" fill="#5F7A69"/>
<path fill-rule="evenodd" clip-rule="evenodd" d="M19.6467 8.08334C20.0717 8.62667 19.9767 9.41167 19.435 9.83834C18.8917 10.265 18.105 10.17 17.68 9.62667C15.5317 6.89 12.22 4.45167 7.2167 2.82667C6.70337 4.03167 5.87004 6.28167 5.48504 8.94C4.92837 12.79 5.30504 17.5417 9.23337 21.08C9.7467 21.5417 9.7867 22.3317 9.32504 22.845C8.86337 23.3583 8.07337 23.3983 7.56004 22.9367C2.90504 18.7433 2.3517 13.1467 3.0117 8.58167C3.6517 4.15 5.42837 0.736669 5.42837 0.736669C5.7017 0.206669 6.3117 -0.0549982 6.88504 0.111669C13.1 1.91 17.095 4.83167 19.6467 8.08334Z" fill="#5F7A69"/>
</svg>
