<svg width="40" height="40" viewBox="0 0 40 40" fill="none" xmlns="http://www.w3.org/2000/svg">
<path d="M34.1422 5.85781C30.3646 2.08039 25.3422 0 20 0C14.6578 0 9.63539 2.08039 5.85781 5.85781C2.08039 9.63539 0 14.6578 0 20C0 25.3422 2.08039 30.3646 5.85781 34.1422C9.63539 37.9196 14.6578 40 20 40C25.3422 40 30.3646 37.9196 34.1422 34.1422C37.9196 30.3646 40 25.3422 40 20C40 14.6578 37.9196 9.63539 34.1422 5.85781ZM7.51516 32.4848C4.18031 29.15 2.34375 24.7162 2.34375 20C2.34375 15.6766 3.88813 11.5913 6.71422 8.37148L15.3875 17.0448L11.4736 20.9547L11.7743 26.5801L8.60383 29.6625L10.2376 31.343L13.5295 28.1424L18.9995 28.4387L22.9037 24.5609L31.6285 33.2858C28.4088 36.1119 24.3234 37.6562 20 37.6562C15.2838 37.6562 10.85 35.8197 7.51516 32.4848ZM27.1356 17.0541L22.9092 21.252L18.7029 17.0456L22.9171 12.8356L27.1356 17.0541ZM21.2463 22.9036L18.0865 26.0421L14.0809 25.8251L13.8712 21.9005L15.5827 23.612L17.24 21.9548L15.5152 20.2299L17.0447 18.702L21.2463 22.9036ZM33.2858 31.6285L24.5665 22.9092L30.4558 17.0597L27.4504 14.0543L29.3609 12.1438L31.7324 14.5152L33.3897 12.858L27.1927 6.66102L25.5355 8.31828L27.7037 10.4865L25.7931 12.397L22.918 9.52187L17.0456 15.3884L8.37148 6.71422C11.5913 3.88813 15.6766 2.34375 20 2.34375C24.7162 2.34375 29.15 4.18031 32.4848 7.51516C35.8197 10.85 37.6562 15.2838 37.6562 20C37.6562 24.3234 36.1119 28.4088 33.2858 31.6285Z" fill="#5F7A69"/>
</svg>
