<svg width="136" height="24" viewBox="0 0 136 24" fill="none" xmlns="http://www.w3.org/2000/svg">
<path d="M10.0328 3.27141C10.8375 1.5762 13.1625 1.57619 13.9672 3.27141L15.3579 6.20118C15.6774 6.87435 16.2951 7.34094 17.0096 7.44888L20.1193 7.91869C21.9187 8.19053 22.6371 10.4895 21.3351 11.8091L19.0849 14.0896C18.5679 14.6136 18.332 15.3685 18.454 16.1084L18.9852 19.3285C19.2926 21.1918 17.4116 22.6126 15.8022 21.7329L13.0208 20.2126C12.3817 19.8633 11.6183 19.8633 10.9792 20.2126L8.19776 21.7329C6.58839 22.6126 4.70742 21.1918 5.01479 19.3286L5.54599 16.1084C5.66804 15.3685 5.43211 14.6136 4.91508 14.0896L2.66488 11.8091C1.36287 10.4895 2.08133 8.19053 3.88066 7.91869L6.99037 7.44888C7.70489 7.34094 8.32257 6.87435 8.64211 6.20118L10.0328 3.27141Z" fill="#FACC15"/>
<path d="M38.0328 3.27141C38.8375 1.5762 41.1625 1.57619 41.9672 3.27141L43.3579 6.20118C43.6774 6.87435 44.2951 7.34094 45.0096 7.44888L48.1193 7.91869C49.9187 8.19053 50.6371 10.4895 49.3351 11.8091L47.0849 14.0896C46.5679 14.6136 46.332 15.3685 46.454 16.1084L46.9852 19.3285C47.2926 21.1918 45.4116 22.6126 43.8022 21.7329L41.0208 20.2126C40.3817 19.8633 39.6183 19.8633 38.9792 20.2126L36.1978 21.7329C34.5884 22.6126 32.7074 21.1918 33.0148 19.3286L33.546 16.1084C33.668 15.3685 33.4321 14.6136 32.9151 14.0896L30.6649 11.8091C29.3629 10.4895 30.0813 8.19053 31.8807 7.91869L34.9904 7.44888C35.7049 7.34094 36.3226 6.87435 36.6421 6.20118L38.0328 3.27141Z" fill="#FACC15"/>
<path d="M66.0328 3.27141C66.8375 1.5762 69.1625 1.57619 69.9672 3.27141L71.3579 6.20118C71.6774 6.87435 72.2951 7.34094 73.0096 7.44888L76.1193 7.91869C77.9187 8.19053 78.6371 10.4895 77.3351 11.8091L75.0849 14.0896C74.5679 14.6136 74.332 15.3685 74.454 16.1084L74.9852 19.3285C75.2926 21.1918 73.4116 22.6126 71.8022 21.7329L69.0208 20.2126C68.3817 19.8633 67.6183 19.8633 66.9792 20.2126L64.1978 21.7329C62.5884 22.6126 60.7074 21.1918 61.0148 19.3286L61.546 16.1084C61.668 15.3685 61.4321 14.6136 60.9151 14.0896L58.6649 11.8091C57.3629 10.4895 58.0813 8.19053 59.8807 7.91869L62.9904 7.44888C63.7049 7.34094 64.3226 6.87435 64.6421 6.20118L66.0328 3.27141Z" fill="#FACC15"/>
<path d="M94.0328 3.27141C94.8375 1.5762 97.1625 1.57619 97.9672 3.27141L99.3579 6.20118C99.6774 6.87435 100.295 7.34094 101.01 7.44888L104.119 7.91869C105.919 8.19053 106.637 10.4895 105.335 11.8091L103.085 14.0896C102.568 14.6136 102.332 15.3685 102.454 16.1084L102.985 19.3285C103.293 21.1918 101.412 22.6126 99.8022 21.7329L97.0208 20.2126C96.3817 19.8633 95.6183 19.8633 94.9792 20.2126L92.1978 21.7329C90.5884 22.6126 88.7074 21.1918 89.0148 19.3286L89.546 16.1084C89.668 15.3685 89.4321 14.6136 88.9151 14.0896L86.6649 11.8091C85.3629 10.4895 86.0813 8.19053 87.8807 7.91869L90.9904 7.44888C91.7049 7.34094 92.3226 6.87435 92.6421 6.20118L94.0328 3.27141Z" fill="#FACC15"/>
<path d="M122.033 3.27141C122.837 1.5762 125.163 1.57619 125.967 3.27141L127.358 6.20118C127.677 6.87435 128.295 7.34094 129.01 7.44888L132.119 7.91869C133.919 8.19053 134.637 10.4895 133.335 11.8091L131.085 14.0896C130.568 14.6136 130.332 15.3685 130.454 16.1084L130.985 19.3285C131.293 21.1918 129.412 22.6126 127.802 21.7329L125.021 20.2126C124.382 19.8633 123.618 19.8633 122.979 20.2126L120.198 21.7329C118.588 22.6126 116.707 21.1918 117.015 19.3286L117.546 16.1084C117.668 15.3685 117.432 14.6136 116.915 14.0896L114.665 11.8091C113.363 10.4895 114.081 8.19053 115.881 7.91869L118.99 7.44888C119.705 7.34094 120.323 6.87435 120.642 6.20118L122.033 3.27141Z" fill="#FACC15"/>
</svg>
